# xmcd
#
# Track frame offsets: 
#        150
#        21610
#        34321
#        58631
#        69802
#        81948
#        95412
#        121797
#        135825
#        149092
#        165375
#        179242
#        193362
#        214891
#        229495
#        251264
#        264452
#        279934
#        295094
#        318280
#
# Disc length: 4416 seconds
#
# Revision: 0
# Processed by: cddbd v1.5.1PL0 Copyright (c) Steve Scherf et al.
# Submitted via: ExactAudioCopy v0.95a5
#
DISCID=2e113e14
DTITLE=Various Artist - Soal Ballads - Forever Gold
DYEAR=2002
DGENRE=Soul
TTITLE0=Teddy Pendergrass - Turn Off The Lights
TTITLE1=The Miracles - Ohh Baby Baby
TTITLE2=Marvyn Gaye Live - Let's Get It On
TTITLE3=Brook Benton - So Many Ways
TTITLE4=The Platters - Smoke In My Eyes
TTITLE5=Chi-Lites - Oh Girl
TTITLE6=Harold Melvin and The Blue Notes feat Billy Paul - Me and Mrs. J
TTITLE6=ones
TTITLE7=The Trammps - If You Don't Know Me By Now
TTITLE8=Percy Sledge - I've Been Loving You Too Long
TTITLE9=The Drifters - Unchained Melody
TTITLE10=Aaron Melville - Tell It Like It Is
TTITLE11=The Miracles - You've Really Got A Hold On Me
TTITLE12=Chi-Lites - Have You Seen Her
TTITLE13=Sam and Dave - When Something Is Wrong With My Baby
TTITLE14=Teddy Pendergrass - Love T.K.O.
TTITLE15=Percy Sledge - When A Man Loves A Woman
TTITLE16=The Trammps - You Are Everything
TTITLE17=Paul Young - Tracks Of My Tears
TTITLE18=James Brown Live - It's A Man's, Man's, Man's World
TTITLE19=The Drifters - Sitting On The Dock Of The Bay
EXTD=
EXTT0=
EXTT1=
EXTT2=
EXTT3=
EXTT4=
EXTT5=
EXTT6=
EXTT7=
EXTT8=
EXTT9=
EXTT10=
EXTT11=
EXTT12=
EXTT13=
EXTT14=
EXTT15=
EXTT16=
EXTT17=
EXTT18=
EXTT19=
PLAYORDER=
